# xmcd CD database file
#
# Track frame offsets:
#	150
#	11548
#	25723
#	39943
#	55628
#	68879
#	83114
#	97092
#	111451
#	126875
#
# Disc length: 1867 seconds
#
# Revision: 0
# Processed by: cddbd v1.5.1PL0 Copyright (c) Steve Scherf et al.
# Submitted via: CDex 1.51
#
DISCID=7a07490a
DTITLE=Various Artist - Sirens Of Swing, Great Songs Of The '30s And '40s [CD1]
DYEAR=1900
DGENRE=Jazz
TTITLE0=Ella Fitzgerald and Her Orch - I Can't Believe That You're In Love With Me
TTITLE1=Billy Holiday, Teddy Wilson and His Orch - Until The Real Thing Comes Along
TTITLE2=Anita O'Day With The King Cole Trio - Penthouse Serenade
TTITLE3=Frances Wayne With Woody Herman and His Orch - Happiness Is Just A ThingCalled Joe
TTITLE4=Kay Starr With The Crystalette All-Stars - Stormy Weather
TTITLE5=Nellie Lutcher And Her Rhythm - The Lady's In Love With You
TTITLE6=Peggy Lee With Dave Barbour's Orchestra - Linger In My Arms A Little Longer, BabyLee Wiley With Jess Stacy And His Orch - It's Only A Paper Moon
TTITLE7=Lee Wiley With Jess Stacy And His Orch - It's Only A Paper Moon
TTITLE8=Fran Warren With Claude Thornhill And His Orch - A Sunday Kind Of Love
TTITLE9=Sarah Vaughan With Ted Dale's Orchestra - Love Me Or Leave Me
EXTD=
EXTT0=
EXTT1=
EXTT2=
EXTT3=
EXTT4=
EXTT5=
EXTT6=
EXTT7=
EXTT8=
EXTT9=
PLAYORDER=
